<?xml version="1.0" encoding="UTF-8" standalone="no"?><svg xmlns="http://www.w3.org/2000/svg" xmlns:xlink="http://www.w3.org/1999/xlink" contentScriptType="application/ecmascript" contentStyleType="text/css" height="607px" preserveAspectRatio="none" style="width:386px;height:607px;" version="1.1" viewBox="0 0 386 607" width="386px" zoomAndPan="magnify"><defs><filter height="300%" id="f1aluq2sjpoxyg" width="300%" x="-1" y="-1"><feGaussianBlur result="blurOut" stdDeviation="2.0"/><feColorMatrix in="blurOut" result="blurOut2" type="matrix" values="0 0 0 0 0 0 0 0 0 0 0 0 0 0 0 0 0 0 .4 0"/><feOffset dx="4.0" dy="4.0" in="blurOut2" result="blurOut3"/><feBlend in="SourceGraphic" in2="blurOut3" mode="normal"/></filter></defs><g><!--cluster Host--><polygon fill="#FFFFFF" filter="url(#f1aluq2sjpoxyg)" points="22,127,32,117,352,117,352,585,342,595,22,595,22,127" style="stroke: #000000; stroke-width: 1.5;"/><line style="stroke: #000000; stroke-width: 1.5;" x1="342" x2="351" y1="127" y2="118"/><line style="stroke: #000000; stroke-width: 1.5;" x1="22" x2="342" y1="127" y2="127"/><line style="stroke: #000000; stroke-width: 1.5;" x1="342" x2="342" y1="127" y2="595"/><text fill="#000000" font-family="sans-serif" font-size="14" font-weight="bold" lengthAdjust="spacingAndGlyphs" textLength="33" x="166.5" y="142.9951">Host</text><!--cluster Port--><rect fill="#FFFFFF" filter="url(#f1aluq2sjpoxyg)" height="80" style="stroke: #000000; stroke-width: 1.5;" width="139" x="104" y="256"/><path d="M145,257 L145,265.2969 L135,275.2969 L104,275.2969 " fill="none" style="stroke: #000000; stroke-width: 1.5;"/><text fill="#000000" font-family="sans-serif" font-size="14" font-weight="bold" lengthAdjust="spacingAndGlyphs" textLength="31" x="107" y="269.9951">Port</text><!--cluster Static file--><rect fill="#FFFFFF" filter="url(#f1aluq2sjpoxyg)" height="87" style="stroke: #000000; stroke-width: 1.5;" width="120" x="46" y="385"/><path d="M121,386 L121,394.2969 L111,404.2969 L46,404.2969 " fill="none" style="stroke: #000000; stroke-width: 1.5;"/><text fill="#000000" font-family="sans-serif" font-size="14" font-weight="bold" lengthAdjust="spacingAndGlyphs" textLength="65" x="49" y="398.9951">Static file</text><!--cluster Process--><rect fill="#FFFFFF" filter="url(#f1aluq2sjpoxyg)" height="186" style="stroke: #000000; stroke-width: 1.5;" width="138" x="190" y="385"/><path d="M253,386 L253,394.2969 L243,404.2969 L190,404.2969 " fill="none" style="stroke: #000000; stroke-width: 1.5;"/><text fill="#000000" font-family="sans-serif" font-size="14" font-weight="bold" lengthAdjust="spacingAndGlyphs" textLength="53" x="193" y="398.9951">Process</text><!--entity nginx--><rect fill="#FEFECE" filter="url(#f1aluq2sjpoxyg)" height="36.2969" style="stroke: #A80036; stroke-width: 1.5;" width="54" x="173" y="157"/><rect fill="#FEFECE" height="5" style="stroke: #A80036; stroke-width: 1.5;" width="10" x="168" y="162"/><rect fill="#FEFECE" height="5" style="stroke: #A80036; stroke-width: 1.5;" width="10" x="168" y="183.2969"/><text fill="#000000" font-family="sans-serif" font-size="14" lengthAdjust="spacingAndGlyphs" textLength="34" x="183" y="179.9951">nginx</text><ellipse cx="135.9517" cy="305.3613" fill="#FEFECE" filter="url(#f1aluq2sjpoxyg)" rx="15.9517" ry="13.3613" style="stroke: #A80036; stroke-width: 1.5;"/><text fill="#000000" font-family="sans-serif" font-size="14" lengthAdjust="spacingAndGlyphs" textLength="16" x="127.9517" y="310.0098">80</text><ellipse cx="206.9706" cy="305.5236" fill="#FEFECE" filter="url(#f1aluq2sjpoxyg)" rx="19.9706" ry="14.5236" style="stroke: #A80036; stroke-width: 1.5;"/><text fill="#000000" font-family="sans-serif" font-size="14" lengthAdjust="spacingAndGlyphs" textLength="24" x="194.9706" y="310.1721">443</text><!--entity index.html--><rect fill="#FEFECE" filter="url(#f1aluq2sjpoxyg)" height="36.2969" style="stroke: #A80036; stroke-width: 1.5;" width="89" x="61.5" y="420"/><rect fill="#FEFECE" height="5" style="stroke: #A80036; stroke-width: 1.5;" width="10" x="56.5" y="425"/><rect fill="#FEFECE" height="5" style="stroke: #A80036; stroke-width: 1.5;" width="10" x="56.5" y="446.2969"/><text fill="#000000" font-family="sans-serif" font-size="14" lengthAdjust="spacingAndGlyphs" textLength="69" x="71.5" y="442.9951">index.html</text><!--entity websh_server--><rect fill="#FEFECE" filter="url(#f1aluq2sjpoxyg)" height="36.2969" style="stroke: #A80036; stroke-width: 1.5;" width="107" x="205.5" y="420"/><rect fill="#FEFECE" height="5" style="stroke: #A80036; stroke-width: 1.5;" width="10" x="200.5" y="425"/><rect fill="#FEFECE" height="5" style="stroke: #A80036; stroke-width: 1.5;" width="10" x="200.5" y="446.2969"/><text fill="#000000" font-family="sans-serif" font-size="14" lengthAdjust="spacingAndGlyphs" textLength="87" x="215.5" y="442.9951">websh_server</text><!--entity docker--><rect fill="#FEFECE" filter="url(#f1aluq2sjpoxyg)" height="36.2969" style="stroke: #A80036; stroke-width: 1.5;" width="63" x="227.5" y="519"/><rect fill="#FEFECE" height="5" style="stroke: #A80036; stroke-width: 1.5;" width="10" x="222.5" y="524"/><rect fill="#FEFECE" height="5" style="stroke: #A80036; stroke-width: 1.5;" width="10" x="222.5" y="545.2969"/><text fill="#000000" font-family="sans-serif" font-size="14" lengthAdjust="spacingAndGlyphs" textLength="43" x="237.5" y="541.9951">docker</text><!--entity net--><path d="M169.1448,18.1353 C171.4992,13.7751 175.0411,13.0997 178.4852,16.8859 C179.9962,11.6625 185.0861,9.235 189.2992,13.944 C193.0113,9.1923 196.6677,9.9027 200.0444,14.3365 C203.4373,9.5013 207.5641,8.7314 211.0876,14.1965 C215.001,9.7609 220.959,10.8733 223.055,16.3833 C225.7973,11.274 230.3433,11.1647 233.3888,16.0704 C242.9555,17.5535 245.8392,25.5036 240.3714,33.1376 C245.1893,41.4059 242.7372,46.0039 233.3507,47.1609 C231.4188,52.8092 227.2998,54.2405 222.6532,50.1396 C222.4127,56.0839 217.574,58.205 212.9998,54.4549 C210.262,59.9948 207.0717,61.7326 202.0544,56.8484 C196.8132,61.8235 190.7752,60.3883 189.4029,52.9161 C185.8327,57.5518 180.9073,57.1851 179.1386,51.1785 C174.3036,56.168 170.0039,53.9202 168.2131,48.1013 C161.03,42.8008 159.7208,37.2253 167.5844,31.3598 C162.4835,26.8236 161.9866,21.2251 169.1448,18.1353 " fill="#FEFECE" style="stroke: #000000; stroke-width: 1.5;"/><text fill="#000000" font-family="sans-serif" font-size="14" lengthAdjust="spacingAndGlyphs" textLength="52" x="174" y="35.9951">Internet</text><!--link net to nginx--><path d="M200,54.19 C200,80.81 200,125.17 200,151.79 " fill="none" id="net-&gt;nginx" style="stroke: #A80036; stroke-width: 1.0;"/><polygon fill="#A80036" points="200,156.87,204,147.87,200,151.87,196,147.87,200,156.87" style="stroke: #A80036; stroke-width: 1.0;"/><text fill="#000000" font-family="sans-serif" font-size="13" lengthAdjust="spacingAndGlyphs" textLength="173" x="201" y="97.0669">http[s]://websh.jiro4989.com/</text><!--link nginx to 80--><path d="M203.47,193.09 C205.31,207.17 205.38,226.89 195,240 C187.76,249.15 179.15,240.76 170,248 C157,258.28 147.83,275.01 142.32,287.6 " fill="none" id="nginx-&gt;80" style="stroke: #A80036; stroke-width: 1.0;"/><polygon fill="#A80036" points="140.31,292.37,147.4965,285.6355,142.2554,287.764,140.1269,282.5228,140.31,292.37" style="stroke: #A80036; stroke-width: 1.0;"/><!--link 80 to nginx--><path d="M124.43,295.7 C105.87,280.5 73.17,248.49 90,223 C107.16,197 141.98,185.34 167.87,180.13 " fill="none" id="80-&gt;nginx" style="stroke: #A80036; stroke-width: 1.0;"/><polygon fill="#A80036" points="172.92,179.17,163.3338,176.9106,168.0069,180.0983,164.8192,184.7715,172.92,179.17" style="stroke: #A80036; stroke-width: 1.0;"/><text fill="#000000" font-family="sans-serif" font-size="13" lengthAdjust="spacingAndGlyphs" textLength="99" x="91" y="236.0669">443リダイレクト</text><!--link nginx to 443--><path d="M200.93,193.06 C202.24,217.16 204.63,260.98 205.99,285.89 " fill="none" id="nginx-&gt;443" style="stroke: #A80036; stroke-width: 1.0;"/><polygon fill="#A80036" points="206.26,290.9,209.7648,281.6959,205.9882,285.9074,201.7767,282.1308,206.26,290.9" style="stroke: #A80036; stroke-width: 1.0;"/><!--link 443 to index.html--><path d="M198.38,318.63 C191.65,327.13 181.53,338.02 170,344 C150.8,353.96 137.45,336.87 122,352 C105.62,368.04 103.09,395.17 103.71,414.47 " fill="none" id="443-&gt;index.html" style="stroke: #A80036; stroke-width: 1.0;"/><polygon fill="#A80036" points="103.96,419.68,107.5448,410.5067,103.7317,414.6852,99.5532,410.8721,103.96,419.68" style="stroke: #A80036; stroke-width: 1.0;"/><text fill="#000000" font-family="sans-serif" font-size="13" lengthAdjust="spacingAndGlyphs" textLength="93" x="123" y="365.0669">GET /index.html</text><!--link 443 to websh_server--><path d="M212.37,319.97 C221.31,342.41 239.34,387.65 250.17,414.84 " fill="none" id="443-&gt;websh_server" style="stroke: #A80036; stroke-width: 1.0;"/><polygon fill="#A80036" points="252.1,419.69,252.4714,409.8481,250.243,415.0476,245.0436,412.8193,252.1,419.69" style="stroke: #A80036; stroke-width: 1.0;"/><text fill="#000000" font-family="sans-serif" font-size="13" lengthAdjust="spacingAndGlyphs" textLength="106" x="232" y="365.0669">POST /api/shellgei</text><!--link websh_server to docker--><path d="M259,456.34 C259,472.34 259,496.19 259,513.62 " fill="none" id="websh_server-&gt;docker" style="stroke: #A80036; stroke-width: 1.0;"/><polygon fill="#A80036" points="259,518.81,263,509.81,259,513.81,255,509.81,259,518.81" style="stroke: #A80036; stroke-width: 1.0;"/><!--
@startuml

cloud "Internet" as net
node "Host" {
    [nginx]
    frame "Port" {
        (80)
        (443)
    }
    frame "Static file" {
        [index.html]
    }
    frame "Process" {
        [websh_server]
        [docker]
    }
}

net -down-> [nginx] : http[s]://websh.jiro4989.com/
[nginx] -down-> (80)
[nginx] -down-> (443)
(80) -> [nginx] : 443リダイレクト
(443) -down-> [index.html] : GET /index.html
(443) -down-> [websh_server] : POST /api/shellgei
[websh_server] -down-> [docker]

@enduml

PlantUML version 1.2019.09(Tue Aug 27 01:19:51 JST 2019)
(GPL source distribution)
Java Runtime: OpenJDK Runtime Environment
JVM: OpenJDK 64-Bit Server VM
Java Version: 11.0.5+10
Operating System: Linux
OS Version: 4.19.91-1-MANJARO
Default Encoding: UTF-8
Language: ja
Country: JP
--></g></svg>