<?xml version="1.0" encoding="UTF-8" standalone="no"?><svg xmlns="http://www.w3.org/2000/svg" xmlns:xlink="http://www.w3.org/1999/xlink" contentScriptType="application/ecmascript" contentStyleType="text/css" height="497px" preserveAspectRatio="none" style="width:455px;height:497px;" version="1.1" viewBox="0 0 455 497" width="455px" zoomAndPan="magnify"><defs><filter height="300%" id="fppzwihqok4d5" width="300%" x="-1" y="-1"><feGaussianBlur result="blurOut" stdDeviation="2.0"/><feColorMatrix in="blurOut" result="blurOut2" type="matrix" values="0 0 0 0 0 0 0 0 0 0 0 0 0 0 0 0 0 0 .4 0"/><feOffset dx="4.0" dy="4.0" in="blurOut2" result="blurOut3"/><feBlend in="SourceGraphic" in2="blurOut3" mode="normal"/></filter></defs><g><ellipse cx="226" cy="20" fill="#000000" filter="url(#fppzwihqok4d5)" rx="10" ry="10" style="stroke: none; stroke-width: 1.0;"/><rect fill="#FEFECE" filter="url(#fppzwihqok4d5)" height="33.9688" rx="12.5" ry="12.5" style="stroke: #A80036; stroke-width: 1.5;" width="150" x="151" y="50"/><text fill="#000000" font-family="sans-serif" font-size="12" lengthAdjust="spacingAndGlyphs" textLength="124" x="164" y="71.1387">[skip ci]の判定 (before)</text><ellipse cx="226" cy="162.3711" fill="#FFFFFF" filter="url(#fppzwihqok4d5)" rx="10" ry="10" style="stroke: #000000; stroke-width: 1.5;"/><line style="stroke: #000000; stroke-width: 2.5;" x1="219.8128" x2="232.1872" y1="156.1839" y2="168.5583"/><line style="stroke: #000000; stroke-width: 2.5;" x1="232.1872" x2="219.8128" y1="156.1839" y2="168.5583"/><polygon fill="#FEFECE" filter="url(#fppzwihqok4d5)" points="121,103.9688,331,103.9688,343,115.9688,331,127.9688,121,127.9688,109,115.9688,121,103.9688" style="stroke: #A80036; stroke-width: 1.5;"/><text fill="#000000" font-family="sans-serif" font-size="11" lengthAdjust="spacingAndGlyphs" textLength="20" x="230" y="138.1792">true</text><text fill="#000000" font-family="sans-serif" font-size="11" lengthAdjust="spacingAndGlyphs" textLength="210" x="121" y="119.7769">コミットタイトルに[skip ci]が含まれるか？</text><rect fill="#FEFECE" filter="url(#fppzwihqok4d5)" height="33.9688" rx="12.5" ry="12.5" style="stroke: #A80036; stroke-width: 1.5;" width="148" x="152" y="214.3711"/><text fill="#000000" font-family="sans-serif" font-size="12" lengthAdjust="spacingAndGlyphs" textLength="122" x="165" y="235.5098">ビルド、テスト (build)</text><rect fill="#000000" filter="url(#fppzwihqok4d5)" height="6" rx="2.5" ry="2.5" style="stroke: #000000; stroke-width: 1.0;" width="434" x="10" y="268.3398"/><rect fill="#FEFECE" filter="url(#fppzwihqok4d5)" height="33.9688" rx="12.5" ry="12.5" style="stroke: #A80036; stroke-width: 1.5;" width="215" x="22" y="342.7422"/><text fill="#000000" font-family="sans-serif" font-size="12" lengthAdjust="spacingAndGlyphs" textLength="189" x="35" y="363.8809">release draft作成 (create-tag-draft)</text><polygon fill="#FEFECE" filter="url(#fppzwihqok4d5)" points="78.5,294.3398,180.5,294.3398,192.5,306.3398,180.5,318.3398,78.5,318.3398,66.5,306.3398,78.5,294.3398" style="stroke: #A80036; stroke-width: 1.5;"/><text fill="#000000" font-family="sans-serif" font-size="11" lengthAdjust="spacingAndGlyphs" textLength="20" x="133.5" y="328.5503">true</text><text fill="#000000" font-family="sans-serif" font-size="11" lengthAdjust="spacingAndGlyphs" textLength="102" x="78.5" y="310.1479">masterへのpushか？</text><polygon fill="#FEFECE" filter="url(#fppzwihqok4d5)" points="129.5,396.7109,141.5,408.7109,129.5,420.7109,117.5,408.7109,129.5,396.7109" style="stroke: #A80036; stroke-width: 1.5;"/><rect fill="#FEFECE" filter="url(#fppzwihqok4d5)" height="33.9688" rx="12.5" ry="12.5" style="stroke: #A80036; stroke-width: 1.5;" width="121" x="297" y="342.7422"/><text fill="#000000" font-family="sans-serif" font-size="12" lengthAdjust="spacingAndGlyphs" textLength="95" x="310" y="363.8809">デプロイ (deploy)</text><polygon fill="#FEFECE" filter="url(#fppzwihqok4d5)" points="324.5,294.3398,390.5,294.3398,402.5,306.3398,390.5,318.3398,324.5,318.3398,312.5,306.3398,324.5,294.3398" style="stroke: #A80036; stroke-width: 1.5;"/><text fill="#000000" font-family="sans-serif" font-size="11" lengthAdjust="spacingAndGlyphs" textLength="20" x="361.5" y="328.5503">true</text><text fill="#000000" font-family="sans-serif" font-size="11" lengthAdjust="spacingAndGlyphs" textLength="66" x="324.5" y="310.1479">リリースか？</text><polygon fill="#FEFECE" filter="url(#fppzwihqok4d5)" points="357.5,396.7109,369.5,408.7109,357.5,420.7109,345.5,408.7109,357.5,396.7109" style="stroke: #A80036; stroke-width: 1.5;"/><rect fill="#000000" filter="url(#fppzwihqok4d5)" height="6" rx="2.5" ry="2.5" style="stroke: #000000; stroke-width: 1.0;" width="434" x="10" y="440.7109"/><ellipse cx="226" cy="476.7109" fill="#FFFFFF" filter="url(#fppzwihqok4d5)" rx="10" ry="10" style="stroke: #000000; stroke-width: 1.5;"/><line style="stroke: #000000; stroke-width: 2.5;" x1="219.8128" x2="232.1872" y1="470.5238" y2="482.8981"/><line style="stroke: #000000; stroke-width: 2.5;" x1="232.1872" x2="219.8128" y1="470.5238" y2="482.8981"/><line style="stroke: #A80036; stroke-width: 1.5;" x1="226" x2="226" y1="30" y2="50"/><polygon fill="#A80036" points="222,40,226,50,230,40,226,44" style="stroke: #A80036; stroke-width: 1.0;"/><line style="stroke: #A80036; stroke-width: 1.5;" x1="226" x2="226" y1="127.9688" y2="152.3711"/><polygon fill="#A80036" points="222,142.3711,226,152.3711,230,142.3711,226,146.3711" style="stroke: #A80036; stroke-width: 1.0;"/><line style="stroke: #A80036; stroke-width: 1.5;" x1="343" x2="355" y1="115.9688" y2="115.9688"/><polygon fill="#A80036" points="351,149.3711,355,159.3711,359,149.3711,355,153.3711" style="stroke: #A80036; stroke-width: 1.5;"/><line style="stroke: #A80036; stroke-width: 1.5;" x1="355" x2="355" y1="115.9688" y2="194.3711"/><line style="stroke: #A80036; stroke-width: 1.5;" x1="355" x2="226" y1="194.3711" y2="194.3711"/><line style="stroke: #A80036; stroke-width: 1.5;" x1="226" x2="226" y1="194.3711" y2="214.3711"/><polygon fill="#A80036" points="222,204.3711,226,214.3711,230,204.3711,226,208.3711" style="stroke: #A80036; stroke-width: 1.0;"/><line style="stroke: #A80036; stroke-width: 1.5;" x1="226" x2="226" y1="83.9688" y2="103.9688"/><polygon fill="#A80036" points="222,93.9688,226,103.9688,230,93.9688,226,97.9688" style="stroke: #A80036; stroke-width: 1.0;"/><line style="stroke: #A80036; stroke-width: 1.5;" x1="129.5" x2="129.5" y1="318.3398" y2="342.7422"/><polygon fill="#A80036" points="125.5,332.7422,129.5,342.7422,133.5,332.7422,129.5,336.7422" style="stroke: #A80036; stroke-width: 1.0;"/><line style="stroke: #A80036; stroke-width: 1.5;" x1="192.5" x2="247" y1="306.3398" y2="306.3398"/><polygon fill="#A80036" points="243,349.7266,247,359.7266,251,349.7266,247,353.7266" style="stroke: #A80036; stroke-width: 1.5;"/><line style="stroke: #A80036; stroke-width: 1.5;" x1="247" x2="247" y1="306.3398" y2="408.7109"/><line style="stroke: #A80036; stroke-width: 1.5;" x1="247" x2="141.5" y1="408.7109" y2="408.7109"/><polygon fill="#A80036" points="151.5,404.7109,141.5,408.7109,151.5,412.7109,147.5,408.7109" style="stroke: #A80036; stroke-width: 1.0;"/><line style="stroke: #A80036; stroke-width: 1.5;" x1="129.5" x2="129.5" y1="376.7109" y2="396.7109"/><polygon fill="#A80036" points="125.5,386.7109,129.5,396.7109,133.5,386.7109,129.5,390.7109" style="stroke: #A80036; stroke-width: 1.0;"/><line style="stroke: #A80036; stroke-width: 1.5;" x1="357.5" x2="357.5" y1="318.3398" y2="342.7422"/><polygon fill="#A80036" points="353.5,332.7422,357.5,342.7422,361.5,332.7422,357.5,336.7422" style="stroke: #A80036; stroke-width: 1.0;"/><line style="stroke: #A80036; stroke-width: 1.5;" x1="402.5" x2="428" y1="306.3398" y2="306.3398"/><polygon fill="#A80036" points="424,349.7266,428,359.7266,432,349.7266,428,353.7266" style="stroke: #A80036; stroke-width: 1.5;"/><line style="stroke: #A80036; stroke-width: 1.5;" x1="428" x2="428" y1="306.3398" y2="408.7109"/><line style="stroke: #A80036; stroke-width: 1.5;" x1="428" x2="369.5" y1="408.7109" y2="408.7109"/><polygon fill="#A80036" points="379.5,404.7109,369.5,408.7109,379.5,412.7109,375.5,408.7109" style="stroke: #A80036; stroke-width: 1.0;"/><line style="stroke: #A80036; stroke-width: 1.5;" x1="357.5" x2="357.5" y1="376.7109" y2="396.7109"/><polygon fill="#A80036" points="353.5,386.7109,357.5,396.7109,361.5,386.7109,357.5,390.7109" style="stroke: #A80036; stroke-width: 1.0;"/><line style="stroke: #A80036; stroke-width: 1.5;" x1="129.5" x2="129.5" y1="274.3398" y2="294.3398"/><polygon fill="#A80036" points="125.5,284.3398,129.5,294.3398,133.5,284.3398,129.5,288.3398" style="stroke: #A80036; stroke-width: 1.0;"/><line style="stroke: #A80036; stroke-width: 1.5;" x1="357.5" x2="357.5" y1="274.3398" y2="294.3398"/><polygon fill="#A80036" points="353.5,284.3398,357.5,294.3398,361.5,284.3398,357.5,288.3398" style="stroke: #A80036; stroke-width: 1.0;"/><line style="stroke: #A80036; stroke-width: 1.5;" x1="129.5" x2="129.5" y1="420.7109" y2="440.7109"/><polygon fill="#A80036" points="125.5,430.7109,129.5,440.7109,133.5,430.7109,129.5,434.7109" style="stroke: #A80036; stroke-width: 1.0;"/><line style="stroke: #A80036; stroke-width: 1.5;" x1="357.5" x2="357.5" y1="420.7109" y2="440.7109"/><polygon fill="#A80036" points="353.5,430.7109,357.5,440.7109,361.5,430.7109,357.5,434.7109" style="stroke: #A80036; stroke-width: 1.0;"/><line style="stroke: #A80036; stroke-width: 1.5;" x1="226" x2="226" y1="248.3398" y2="268.3398"/><polygon fill="#A80036" points="222,258.3398,226,268.3398,230,258.3398,226,262.3398" style="stroke: #A80036; stroke-width: 1.0;"/><line style="stroke: #A80036; stroke-width: 1.5;" x1="226" x2="226" y1="446.7109" y2="466.7109"/><polygon fill="#A80036" points="222,456.7109,226,466.7109,230,456.7109,226,460.7109" style="stroke: #A80036; stroke-width: 1.0;"/><!--
@startuml

start

: [skip ci]の判定 (before) ;
if (コミットタイトルに[skip ci]が含まれるか？) then (true)
    end
endif
: ビルド、テスト (build) ;
fork
    if (masterへのpushか？) then (true)
        : release draft作成 (create-tag-draft) ;
    endif
fork again
    if (リリースか？) then (true)
        : デプロイ (deploy) ;
    endif
end fork

end

@enduml

PlantUML version 1.2019.09(Tue Aug 27 01:19:51 JST 2019)
(GPL source distribution)
Java Runtime: OpenJDK Runtime Environment
JVM: OpenJDK 64-Bit Server VM
Java Version: 11.0.5+10
Operating System: Linux
OS Version: 4.19.81-1-MANJARO
Default Encoding: UTF-8
Language: ja
Country: JP
--></g></svg>