<?xml version="1.0" encoding="UTF-8" standalone="no"?><svg xmlns="http://www.w3.org/2000/svg" xmlns:xlink="http://www.w3.org/1999/xlink" contentScriptType="application/ecmascript" contentStyleType="text/css" height="759px" preserveAspectRatio="none" style="width:581px;height:759px;" version="1.1" viewBox="0 0 581 759" width="581px" zoomAndPan="magnify"><defs><filter height="300%" id="f4a0p9lvtf5v" width="300%" x="-1" y="-1"><feGaussianBlur result="blurOut" stdDeviation="2.0"/><feColorMatrix in="blurOut" result="blurOut2" type="matrix" values="0 0 0 0 0 0 0 0 0 0 0 0 0 0 0 0 0 0 .4 0"/><feOffset dx="4.0" dy="4.0" in="blurOut2" result="blurOut3"/><feBlend in="SourceGraphic" in2="blurOut3" mode="normal"/></filter></defs><g><!--MD5=[47973610d6dc68264315f43ad8ea827e]
cluster PC--><polygon fill="#FFFFFF" filter="url(#f4a0p9lvtf5v)" points="16,150.5,26,140.5,564,140.5,564,742.5,554,752.5,16,752.5,16,150.5" style="stroke:#000000;stroke-width:1.5;"/><line style="stroke:#000000;stroke-width:1.5;" x1="554" x2="564" y1="150.5" y2="140.5"/><line style="stroke:#000000;stroke-width:1.5;" x1="16" x2="554" y1="150.5" y2="150.5"/><line style="stroke:#000000;stroke-width:1.5;" x1="554" x2="554" y1="150.5" y2="752.5"/><text fill="#000000" font-family="sans-serif" font-size="14" font-weight="bold" lengthAdjust="spacingAndGlyphs" textLength="21" x="275.5" y="166.4951">PC</text><!--MD5=[42591781c74864aa6bd8b9830e23a81c]
cluster Docker--><polygon fill="#FFFFFF" filter="url(#f4a0p9lvtf5v)" points="24,172.5,86,172.5,93,194.7969,556,194.7969,556,575.5,24,575.5,24,172.5" style="stroke:#000000;stroke-width:1.5;"/><line style="stroke:#000000;stroke-width:1.5;" x1="24" x2="93" y1="194.7969" y2="194.7969"/><text fill="#000000" font-family="sans-serif" font-size="14" font-weight="bold" lengthAdjust="spacingAndGlyphs" textLength="56" x="28" y="187.4951">Docker</text><!--MD5=[d64883541e3d62e3241c4d12decf100d]
cluster Application--><rect fill="#FFFFFF" filter="url(#f4a0p9lvtf5v)" height="81" style="stroke:#000000;stroke-width:1.5;" width="337" x="211" y="486.5"/><path d="M308,486.5 L308,495.7969 L298,505.7969 L211,505.7969 " fill="none" style="stroke:#000000;stroke-width:1.5;"/><text fill="#000000" font-family="sans-serif" font-size="14" font-weight="bold" lengthAdjust="spacingAndGlyphs" textLength="87" x="214" y="500.4951">Application</text><!--MD5=[b9586600103814a499497f8f31890a4f]
entity fs--><rect fill="#FEFECE" filter="url(#f4a0p9lvtf5v)" height="46.2969" style="stroke:#A80036;stroke-width:1.5;" width="116" x="229" y="698.5"/><rect fill="#FEFECE" height="10" style="stroke:#A80036;stroke-width:1.5;" width="15" x="325" y="703.5"/><rect fill="#FEFECE" height="2" style="stroke:#A80036;stroke-width:1.5;" width="4" x="323" y="705.5"/><rect fill="#FEFECE" height="2" style="stroke:#A80036;stroke-width:1.5;" width="4" x="323" y="709.5"/><text fill="#000000" font-family="sans-serif" font-size="14" lengthAdjust="spacingAndGlyphs" textLength="76" x="244" y="731.4951">file_system</text><!--MD5=[8824c66cba45be527cf3dd56bcd70cd2]
entity nginx--><rect fill="#FEFECE" filter="url(#f4a0p9lvtf5v)" height="46.2969" style="stroke:#A80036;stroke-width:1.5;" width="77" x="248.5" y="199.5"/><rect fill="#FEFECE" height="10" style="stroke:#A80036;stroke-width:1.5;" width="15" x="305.5" y="204.5"/><rect fill="#FEFECE" height="2" style="stroke:#A80036;stroke-width:1.5;" width="4" x="303.5" y="206.5"/><rect fill="#FEFECE" height="2" style="stroke:#A80036;stroke-width:1.5;" width="4" x="303.5" y="210.5"/><text fill="#000000" font-family="sans-serif" font-size="14" lengthAdjust="spacingAndGlyphs" textLength="37" x="263.5" y="232.4951">nginx</text><!--MD5=[943a728237655bc9344eb86c044ec590]
entity bot--><rect fill="#FEFECE" filter="url(#f4a0p9lvtf5v)" height="46.2969" style="stroke:#A80036;stroke-width:1.5;" width="116" x="32" y="513.5"/><rect fill="#FEFECE" height="10" style="stroke:#A80036;stroke-width:1.5;" width="15" x="128" y="518.5"/><rect fill="#FEFECE" height="2" style="stroke:#A80036;stroke-width:1.5;" width="4" x="126" y="520.5"/><rect fill="#FEFECE" height="2" style="stroke:#A80036;stroke-width:1.5;" width="4" x="126" y="524.5"/><text fill="#000000" font-family="sans-serif" font-size="14" lengthAdjust="spacingAndGlyphs" textLength="76" x="47" y="546.4951">shellgeibot</text><!--MD5=[dd82451e1dd92fe3da01853750f49ff6]
entity server--><rect fill="#FEFECE" filter="url(#f4a0p9lvtf5v)" height="46.2969" style="stroke:#A80036;stroke-width:1.5;" width="136" x="219" y="513.5"/><rect fill="#FEFECE" height="10" style="stroke:#A80036;stroke-width:1.5;" width="15" x="335" y="518.5"/><rect fill="#FEFECE" height="2" style="stroke:#A80036;stroke-width:1.5;" width="4" x="333" y="520.5"/><rect fill="#FEFECE" height="2" style="stroke:#A80036;stroke-width:1.5;" width="4" x="333" y="524.5"/><text fill="#000000" font-family="sans-serif" font-size="14" lengthAdjust="spacingAndGlyphs" textLength="96" x="234" y="546.4951">websh_server</text><!--MD5=[d311fa75bf56db888aecaf9e391bcc25]
entity remover--><rect fill="#FEFECE" filter="url(#f4a0p9lvtf5v)" height="46.2969" style="stroke:#A80036;stroke-width:1.5;" width="150" x="390" y="513.5"/><rect fill="#FEFECE" height="10" style="stroke:#A80036;stroke-width:1.5;" width="15" x="520" y="518.5"/><rect fill="#FEFECE" height="2" style="stroke:#A80036;stroke-width:1.5;" width="4" x="518" y="520.5"/><rect fill="#FEFECE" height="2" style="stroke:#A80036;stroke-width:1.5;" width="4" x="518" y="524.5"/><text fill="#000000" font-family="sans-serif" font-size="14" lengthAdjust="spacingAndGlyphs" textLength="110" x="405" y="546.4951">websh_remover</text><!--MD5=[3d99d59a27ec55cd9b0b1490801f78bc]
entity dev--><ellipse cx="287" cy="14" fill="#FEFECE" filter="url(#f4a0p9lvtf5v)" rx="8" ry="8" style="stroke:#A80036;stroke-width:1.5;"/><path d="M287,22 L287,49 M274,30 L300,30 M287,49 L274,64 M287,49 L300,64 " fill="none" filter="url(#f4a0p9lvtf5v)" style="stroke:#A80036;stroke-width:1.5;"/><text fill="#000000" font-family="sans-serif" font-size="14" lengthAdjust="spacingAndGlyphs" textLength="71" x="251.5" y="82.4951">Developer</text><!--MD5=[026f01f7f9ceba021a4ba77f11345dd5]
link dev to nginx--><path d="M287,85.7221 C287,118.868 287,164.804 287,194.0899 " fill="none" id="dev-to-nginx" style="stroke:#A80036;stroke-width:1.0;"/><polygon fill="#A80036" points="287,199.3576,291,190.3576,287,194.3576,283,190.3576,287,199.3576" style="stroke:#A80036;stroke-width:1.0;"/><text fill="#000000" font-family="sans-serif" font-size="13" lengthAdjust="spacingAndGlyphs" textLength="208" x="288" y="128.5669">POST http://localhost/api/shellgei</text><!--MD5=[e7cf1c3234b603b847279a630c466480]
link nginx to server--><path d="M287,245.8131 C287,262.782 287,286.3151 287,307 C287,307 287,307 287,447 C287,467.4182 287,490.4565 287,508.0453 " fill="none" id="nginx-to-server" style="stroke:#A80036;stroke-width:1.0;"/><polygon fill="#A80036" points="287,513.32,291,504.32,287,508.32,283,504.32,287,513.32" style="stroke:#A80036;stroke-width:1.0;"/><text fill="#000000" font-family="sans-serif" font-size="13" lengthAdjust="spacingAndGlyphs" textLength="35" x="288" y="381.5669">proxy</text><!--MD5=[a135ca9011ab79ed14afbcd73f9bd0c3]
reverse link bot to server--><path d="M153.0467,536.5 C174.0693,536.5 197.5782,536.5 218.9624,536.5 " fill="none" id="bot-backto-server" style="stroke:#A80036;stroke-width:1.0;"/><polygon fill="#A80036" points="148.041,536.5,157.041,540.5,153.041,536.5,157.041,532.5,148.041,536.5" style="stroke:#A80036;stroke-width:1.0;"/><text fill="#000000" font-family="sans-serif" font-size="13" lengthAdjust="spacingAndGlyphs" textLength="34" x="166.5" y="529.5669">POST</text><!--MD5=[5d8223c2e3eb7db97688e7107b125539]
link server to fs--><path d="M287,559.5563 C287,593.4378 287,656.6123 287,693.2397 " fill="none" id="server-to-fs" style="stroke:#A80036;stroke-width:1.0;"/><polygon fill="#A80036" points="287,698.4444,291,689.4444,287,693.4444,283,689.4444,287,698.4444" style="stroke:#A80036;stroke-width:1.0;"/><text fill="#000000" font-family="sans-serif" font-size="13" lengthAdjust="spacingAndGlyphs" textLength="93" x="288" y="633.5669">read / write file</text><!--MD5=[20a1006c19df7f25e7badb1339dd9929]
link bot to fs--><path d="M114.5519,559.5563 C151.2225,593.9932 220.1175,658.6915 258.8017,695.0193 " fill="none" id="bot-to-fs" style="stroke:#A80036;stroke-width:1.0;"/><polygon fill="#A80036" points="262.4489,698.4444,258.6265,689.3675,258.8041,695.0216,253.15,695.1992,262.4489,698.4444" style="stroke:#A80036;stroke-width:1.0;"/><text fill="#000000" font-family="sans-serif" font-size="13" lengthAdjust="spacingAndGlyphs" textLength="52" x="196" y="633.5669">write file</text><!--MD5=[af0ca61de349537a895589d64a86a70d]
link remover to fs--><path d="M450.1106,559.8296 C435.949,581.162 413.3879,613.0252 390,637.5 C369.6745,658.7701 344.0459,679.6894 323.4383,695.3314 " fill="none" id="remover-to-fs" style="stroke:#A80036;stroke-width:1.0;"/><polygon fill="#A80036" points="319.3868,698.3879,328.9805,696.1606,323.3783,695.3766,324.1624,689.7743,319.3868,698.3879" style="stroke:#A80036;stroke-width:1.0;"/><text fill="#000000" font-family="sans-serif" font-size="13" lengthAdjust="spacingAndGlyphs" textLength="71" x="405" y="633.5669">remove file</text><!--MD5=[8f2b3b153def65877570f9baeed6a42c]
@startuml
actor Developer as dev

node PC {
  package Docker {
    [nginx] as nginx
    frame Application {
      [websh_server] as server
      [websh_remover] as remover
    }
    [shellgeibot] as bot
  }
  [file_system] as fs
}

dev -down-> nginx : POST http://localhost/api/shellgei
nginx -down-> server : proxy
server -left-> bot : POST
server -down-> fs : read / write file
bot -> fs : write file
remover -> fs : remove file
@enduml

PlantUML version 1.2020.22(Sun Dec 06 09:36:27 UTC 2020)
(GPL source distribution)
Java Runtime: OpenJDK Runtime Environment
JVM: OpenJDK 64-Bit Server VM
Default Encoding: UTF-8
Language: en
Country: US
--></g></svg>