<?xml version="1.0" encoding="UTF-8" standalone="no"?><svg xmlns="http://www.w3.org/2000/svg" xmlns:xlink="http://www.w3.org/1999/xlink" contentScriptType="application/ecmascript" contentStyleType="text/css" height="556px" preserveAspectRatio="none" style="width:587px;height:556px;" version="1.1" viewBox="0 0 587 556" width="587px" zoomAndPan="magnify"><defs><filter height="300%" id="f1sgxj8hvqf08g" width="300%" x="-1" y="-1"><feGaussianBlur result="blurOut" stdDeviation="2.0"/><feColorMatrix in="blurOut" result="blurOut2" type="matrix" values="0 0 0 0 0 0 0 0 0 0 0 0 0 0 0 0 0 0 .4 0"/><feOffset dx="4.0" dy="4.0" in="blurOut2" result="blurOut3"/><feBlend in="SourceGraphic" in2="blurOut3" mode="normal"/></filter></defs><g><rect fill="#FFFFFF" filter="url(#f1sgxj8hvqf08g)" height="333.4609" style="stroke: #A80036; stroke-width: 1.0;" width="10" x="22" y="117.4297"/><rect fill="#FFFFFF" filter="url(#f1sgxj8hvqf08g)" height="333.4609" style="stroke: #A80036; stroke-width: 1.0;" width="10" x="189" y="117.4297"/><rect fill="#FFFFFF" filter="url(#f1sgxj8hvqf08g)" height="363.5938" style="stroke: #A80036; stroke-width: 1.0;" width="10" x="284" y="96.2969"/><rect fill="#FFFFFF" filter="url(#f1sgxj8hvqf08g)" height="363.5938" style="stroke: #A80036; stroke-width: 1.0;" width="10" x="355" y="96.2969"/><rect fill="#FFFFFF" filter="url(#f1sgxj8hvqf08g)" height="71.2656" style="stroke: #A80036; stroke-width: 1.0;" width="10" x="480" y="321.3594"/><line style="stroke: #A80036; stroke-width: 1.0; stroke-dasharray: 5.0,5.0;" x1="27" x2="27" y1="86.2969" y2="468.8906"/><line style="stroke: #A80036; stroke-width: 1.0; stroke-dasharray: 5.0,5.0;" x1="194" x2="194" y1="86.2969" y2="468.8906"/><line style="stroke: #A80036; stroke-width: 1.0; stroke-dasharray: 5.0,5.0;" x1="288.5" x2="288.5" y1="86.2969" y2="468.8906"/><line style="stroke: #A80036; stroke-width: 1.0; stroke-dasharray: 5.0,5.0;" x1="359.5" x2="359.5" y1="86.2969" y2="468.8906"/><line style="stroke: #A80036; stroke-width: 1.0; stroke-dasharray: 5.0,5.0;" x1="485" x2="485" y1="86.2969" y2="468.8906"/><text fill="#000000" font-family="sans-serif" font-size="14" lengthAdjust="spacingAndGlyphs" textLength="32" x="8" y="82.9951">User</text><ellipse cx="27" cy="13" fill="#FEFECE" filter="url(#f1sgxj8hvqf08g)" rx="8" ry="8" style="stroke: #A80036; stroke-width: 2.0;"/><path d="M27,21 L27,48 M14,29 L40,29 M27,48 L14,63 M27,48 L40,63 " fill="none" filter="url(#f1sgxj8hvqf08g)" style="stroke: #A80036; stroke-width: 2.0;"/><text fill="#000000" font-family="sans-serif" font-size="14" lengthAdjust="spacingAndGlyphs" textLength="32" x="8" y="480.8857">User</text><ellipse cx="27" cy="494.1875" fill="#FEFECE" filter="url(#f1sgxj8hvqf08g)" rx="8" ry="8" style="stroke: #A80036; stroke-width: 2.0;"/><path d="M27,502.1875 L27,529.1875 M14,510.1875 L40,510.1875 M27,529.1875 L14,544.1875 M27,529.1875 L40,544.1875 " fill="none" filter="url(#f1sgxj8hvqf08g)" style="stroke: #A80036; stroke-width: 2.0;"/><text fill="#000000" font-family="sans-serif" font-size="14" lengthAdjust="spacingAndGlyphs" textLength="56" x="163" y="82.9951">ブラウザ</text><path d="M173.5,42 L173.5,66 M173.5,54 L190.5,54 " fill="none" filter="url(#f1sgxj8hvqf08g)" style="stroke: #A80036; stroke-width: 2.0;"/><ellipse cx="202.5" cy="54" fill="#FEFECE" filter="url(#f1sgxj8hvqf08g)" rx="12" ry="12" style="stroke: #A80036; stroke-width: 2.0;"/><text fill="#000000" font-family="sans-serif" font-size="14" lengthAdjust="spacingAndGlyphs" textLength="56" x="163" y="480.8857">ブラウザ</text><path d="M173.5,488.1875 L173.5,512.1875 M173.5,500.1875 L190.5,500.1875 " fill="none" filter="url(#f1sgxj8hvqf08g)" style="stroke: #A80036; stroke-width: 2.0;"/><ellipse cx="202.5" cy="500.1875" fill="#FEFECE" filter="url(#f1sgxj8hvqf08g)" rx="12" ry="12" style="stroke: #A80036; stroke-width: 2.0;"/><text fill="#000000" font-family="sans-serif" font-size="14" lengthAdjust="spacingAndGlyphs" textLength="47" x="262.5" y="82.9951">GitHub</text><path d="M268.5,42 L268.5,66 M268.5,54 L285.5,54 " fill="none" filter="url(#f1sgxj8hvqf08g)" style="stroke: #A80036; stroke-width: 2.0;"/><ellipse cx="297.5" cy="54" fill="#FEFECE" filter="url(#f1sgxj8hvqf08g)" rx="12" ry="12" style="stroke: #A80036; stroke-width: 2.0;"/><text fill="#000000" font-family="sans-serif" font-size="14" lengthAdjust="spacingAndGlyphs" textLength="47" x="262.5" y="480.8857">GitHub</text><path d="M268.5,488.1875 L268.5,512.1875 M268.5,500.1875 L285.5,500.1875 " fill="none" filter="url(#f1sgxj8hvqf08g)" style="stroke: #A80036; stroke-width: 2.0;"/><ellipse cx="297.5" cy="500.1875" fill="#FEFECE" filter="url(#f1sgxj8hvqf08g)" rx="12" ry="12" style="stroke: #A80036; stroke-width: 2.0;"/><text fill="#000000" font-family="sans-serif" font-size="14" lengthAdjust="spacingAndGlyphs" textLength="63" x="325.5" y="82.9951">APIアプリ</text><path d="M339.5,42 L339.5,66 M339.5,54 L356.5,54 " fill="none" filter="url(#f1sgxj8hvqf08g)" style="stroke: #A80036; stroke-width: 2.0;"/><ellipse cx="368.5" cy="54" fill="#FEFECE" filter="url(#f1sgxj8hvqf08g)" rx="12" ry="12" style="stroke: #A80036; stroke-width: 2.0;"/><text fill="#000000" font-family="sans-serif" font-size="14" lengthAdjust="spacingAndGlyphs" textLength="63" x="325.5" y="480.8857">APIアプリ</text><path d="M339.5,488.1875 L339.5,512.1875 M339.5,500.1875 L356.5,500.1875 " fill="none" filter="url(#f1sgxj8hvqf08g)" style="stroke: #A80036; stroke-width: 2.0;"/><ellipse cx="368.5" cy="500.1875" fill="#FEFECE" filter="url(#f1sgxj8hvqf08g)" rx="12" ry="12" style="stroke: #A80036; stroke-width: 2.0;"/><text fill="#000000" font-family="sans-serif" font-size="14" lengthAdjust="spacingAndGlyphs" textLength="50" x="457" y="82.9951">Docker</text><path d="M464.5,42 L464.5,66 M464.5,54 L481.5,54 " fill="none" filter="url(#f1sgxj8hvqf08g)" style="stroke: #A80036; stroke-width: 2.0;"/><ellipse cx="493.5" cy="54" fill="#FEFECE" filter="url(#f1sgxj8hvqf08g)" rx="12" ry="12" style="stroke: #A80036; stroke-width: 2.0;"/><text fill="#000000" font-family="sans-serif" font-size="14" lengthAdjust="spacingAndGlyphs" textLength="50" x="457" y="480.8857">Docker</text><path d="M464.5,488.1875 L464.5,512.1875 M464.5,500.1875 L481.5,500.1875 " fill="none" filter="url(#f1sgxj8hvqf08g)" style="stroke: #A80036; stroke-width: 2.0;"/><ellipse cx="493.5" cy="500.1875" fill="#FEFECE" filter="url(#f1sgxj8hvqf08g)" rx="12" ry="12" style="stroke: #A80036; stroke-width: 2.0;"/><rect fill="#FFFFFF" filter="url(#f1sgxj8hvqf08g)" height="333.4609" style="stroke: #A80036; stroke-width: 1.0;" width="10" x="22" y="117.4297"/><rect fill="#FFFFFF" filter="url(#f1sgxj8hvqf08g)" height="333.4609" style="stroke: #A80036; stroke-width: 1.0;" width="10" x="189" y="117.4297"/><rect fill="#FFFFFF" filter="url(#f1sgxj8hvqf08g)" height="363.5938" style="stroke: #A80036; stroke-width: 1.0;" width="10" x="284" y="96.2969"/><rect fill="#FFFFFF" filter="url(#f1sgxj8hvqf08g)" height="363.5938" style="stroke: #A80036; stroke-width: 1.0;" width="10" x="355" y="96.2969"/><rect fill="#FFFFFF" filter="url(#f1sgxj8hvqf08g)" height="71.2656" style="stroke: #A80036; stroke-width: 1.0;" width="10" x="480" y="321.3594"/><polygon fill="#A80036" points="177,113.4297,187,117.4297,177,121.4297,181,117.4297" style="stroke: #A80036; stroke-width: 1.0;"/><line style="stroke: #A80036; stroke-width: 1.0;" x1="32" x2="183" y1="117.4297" y2="117.4297"/><text fill="#000000" font-family="sans-serif" font-size="13" lengthAdjust="spacingAndGlyphs" textLength="143" x="39" y="112.3638">トップページにアクセス</text><polygon fill="#A80036" points="272,142.5625,282,146.5625,272,150.5625,276,146.5625" style="stroke: #A80036; stroke-width: 1.0;"/><line style="stroke: #A80036; stroke-width: 1.0;" x1="199" x2="278" y1="146.5625" y2="146.5625"/><text fill="#000000" font-family="sans-serif" font-size="13" lengthAdjust="spacingAndGlyphs" textLength="61" x="206" y="141.4966">HTML取得</text><polygon fill="#A80036" points="210,171.6953,200,175.6953,210,179.6953,206,175.6953" style="stroke: #A80036; stroke-width: 1.0;"/><line style="stroke: #A80036; stroke-width: 1.0;" x1="204" x2="283" y1="175.6953" y2="175.6953"/><text fill="#000000" font-family="sans-serif" font-size="13" lengthAdjust="spacingAndGlyphs" textLength="61" x="216" y="170.6294">HTML返却</text><polygon fill="#A80036" points="43,200.8281,33,204.8281,43,208.8281,39,204.8281" style="stroke: #A80036; stroke-width: 1.0;"/><line style="stroke: #A80036; stroke-width: 1.0;" x1="37" x2="188" y1="204.8281" y2="204.8281"/><text fill="#000000" font-family="sans-serif" font-size="13" lengthAdjust="spacingAndGlyphs" textLength="52" x="49" y="199.7622">画面表示</text><polygon fill="#A80036" points="177,229.9609,187,233.9609,177,237.9609,181,233.9609" style="stroke: #A80036; stroke-width: 1.0;"/><line style="stroke: #A80036; stroke-width: 1.0;" x1="32" x2="183" y1="233.9609" y2="233.9609"/><text fill="#000000" font-family="sans-serif" font-size="13" lengthAdjust="spacingAndGlyphs" textLength="91" x="39" y="228.895">シェル芸の入力</text><polygon fill="#A80036" points="177,259.0938,187,263.0938,177,267.0938,181,263.0938" style="stroke: #A80036; stroke-width: 1.0;"/><line style="stroke: #A80036; stroke-width: 1.0;" x1="32" x2="183" y1="263.0938" y2="263.0938"/><text fill="#000000" font-family="sans-serif" font-size="13" lengthAdjust="spacingAndGlyphs" textLength="132" x="39" y="258.0278">Postボタンをクリック</text><polygon fill="#A80036" points="343,288.2266,353,292.2266,343,296.2266,347,292.2266" style="stroke: #A80036; stroke-width: 1.0;"/><line style="stroke: #A80036; stroke-width: 1.0;" x1="199" x2="349" y1="292.2266" y2="292.2266"/><text fill="#000000" font-family="sans-serif" font-size="13" lengthAdjust="spacingAndGlyphs" textLength="113" x="206" y="287.1606">POST /api/shellgei</text><polygon fill="#A80036" points="468,317.3594,478,321.3594,468,325.3594,472,321.3594" style="stroke: #A80036; stroke-width: 1.0;"/><line style="stroke: #A80036; stroke-width: 1.0;" x1="365" x2="474" y1="321.3594" y2="321.3594"/><text fill="#000000" font-family="sans-serif" font-size="13" lengthAdjust="spacingAndGlyphs" textLength="68" x="372" y="316.2935">docker run</text><line style="stroke: #A80036; stroke-width: 1.0;" x1="490" x2="532" y1="350.4922" y2="350.4922"/><line style="stroke: #A80036; stroke-width: 1.0;" x1="532" x2="532" y1="350.4922" y2="363.4922"/><line style="stroke: #A80036; stroke-width: 1.0;" x1="491" x2="532" y1="363.4922" y2="363.4922"/><polygon fill="#A80036" points="501,359.4922,491,363.4922,501,367.4922,497,363.4922" style="stroke: #A80036; stroke-width: 1.0;"/><text fill="#000000" font-family="sans-serif" font-size="13" lengthAdjust="spacingAndGlyphs" textLength="78" x="497" y="345.4263">シェルの実行</text><polygon fill="#A80036" points="376,388.625,366,392.625,376,396.625,372,392.625" style="stroke: #A80036; stroke-width: 1.0;"/><line style="stroke: #A80036; stroke-width: 1.0;" x1="370" x2="484" y1="392.625" y2="392.625"/><text fill="#000000" font-family="sans-serif" font-size="13" lengthAdjust="spacingAndGlyphs" textLength="91" x="382" y="387.5591">実行結果の返却</text><polygon fill="#A80036" points="210,417.7578,200,421.7578,210,425.7578,206,421.7578" style="stroke: #A80036; stroke-width: 1.0;"/><line style="stroke: #A80036; stroke-width: 1.0;" x1="204" x2="354" y1="421.7578" y2="421.7578"/><text fill="#000000" font-family="sans-serif" font-size="13" lengthAdjust="spacingAndGlyphs" textLength="91" x="216" y="416.6919">実行結果の返却</text><polygon fill="#A80036" points="38,446.8906,28,450.8906,38,454.8906,34,450.8906" style="stroke: #A80036; stroke-width: 1.0;"/><line style="stroke: #A80036; stroke-width: 1.0;" x1="32" x2="193" y1="450.8906" y2="450.8906"/><text fill="#000000" font-family="sans-serif" font-size="13" lengthAdjust="spacingAndGlyphs" textLength="52" x="44" y="445.8247">画面表示</text><!--MD5=[b0de17c581e98ed0290594dc7d5d926b]
@startuml
actor User as user
boundary ブラウザ as web
boundary GitHub as gh
boundary APIアプリ as api
boundary Docker as docker

activate api
activate gh
user -> web : トップページにアクセス
activate user
activate web
web -> gh : HTML取得
gh -> web : HTML返却
web -> user : 画面表示

user -> web : シェル芸の入力
user -> web : Postボタンをクリック
web -> api : POST /api/shellgei 
api -> docker : docker run
activate docker
docker -> docker : シェルの実行
docker -> api : 実行結果の返却
deactivate docker
api -> web : 実行結果の返却
web -> user : 画面表示
deactivate user
deactivate web
@enduml

PlantUML version 1.2019.12beta6(Unknown compile time)
(GPL source distribution)
Java Runtime: Java(TM) SE Runtime Environment
JVM: Java HotSpot(TM) 64-Bit Server VM
Java Version: 1.7.0_25-b15
Operating System: Linux
Default Encoding: UTF-8
Language: en
Country: US
--></g></svg>